<?xml version="1.0" encoding="UTF-8" standalone="no"?>
<!-- Generated by IcoMoon.io -->

<svg
   xmlns:dc="http://purl.org/dc/elements/1.1/"
   xmlns:cc="http://creativecommons.org/ns#"
   xmlns:rdf="http://www.w3.org/1999/02/22-rdf-syntax-ns#"
   xmlns:svg="http://www.w3.org/2000/svg"
   xmlns="http://www.w3.org/2000/svg"
   xmlns:sodipodi="http://sodipodi.sourceforge.net/DTD/sodipodi-0.dtd"
   xmlns:inkscape="http://www.inkscape.org/namespaces/inkscape"
   version="1.1"
   width="32"
   height="32"
   viewBox="0 0 32 32"
   id="svg8"
   sodipodi:docname="loop2.svg"
   inkscape:version="0.92.1 r">
  <metadata
     id="metadata14">
    <rdf:RDF>
      <cc:Work
         rdf:about="">
        <dc:format>image/svg+xml</dc:format>
        <dc:type
           rdf:resource="http://purl.org/dc/dcmitype/StillImage" />
      </cc:Work>
    </rdf:RDF>
  </metadata>
  <defs
     id="defs12" />
  <sodipodi:namedview
     pagecolor="#ffffff"
     bordercolor="#666666"
     borderopacity="1"
     objecttolerance="10"
     gridtolerance="10"
     guidetolerance="10"
     inkscape:pageopacity="0"
     inkscape:pageshadow="2"
     inkscape:window-width="1920"
     inkscape:window-height="1136"
     id="namedview10"
     showgrid="false"
     inkscape:zoom="7.375"
     inkscape:cx="50.430586"
     inkscape:cy="0.11272434"
     inkscape:window-x="1152"
     inkscape:window-y="27"
     inkscape:window-maximized="1"
     inkscape:current-layer="svg8" />
  <title
     id="title2">loop2</title>
  <path
     d="M 27.802,5.197 C 24.877,2.003 20.672,0 15.999,0 c -8.837,0 -16,7.163 -16,16 h 3 c 0,-7.18 5.82,-13 13,-13 3.844,0 7.298,1.669 9.678,4.322 L 22.999,10 l 9,2 -2,-9 -2.198,2.197 z"
     id="path4"
     inkscape:connector-curvature="0"
     sodipodi:nodetypes="csccscccccc" />
  <path
     d="M 29,16 C 29,23.18 23.18,29 16,29 12.156,29 8.702,27.331 6.322,24.678 L 9,22 0,20 2,29 4.197,26.803 C 7.122,29.997 11.327,32 16,32 24.837,32 32,24.837 32,16 Z"
     id="path6"
     inkscape:connector-curvature="0"
     sodipodi:nodetypes="cscccccscc" />
</svg>
